<svg width="17" height="18" viewBox="0 0 17 18" fill="none" xmlns="http://www.w3.org/2000/svg">
<g id="Group 1000004103">
<path id="Vector" fill-rule="evenodd" clip-rule="evenodd" d="M5.61547 2.83942C5.62188 2.81114 5.6296 2.77719 5.63939 2.73549C5.68481 2.54217 5.75957 2.25804 5.91338 1.97802C6.0701 1.69278 6.31328 1.40368 6.69453 1.21351C7.07449 1.024 7.55101 0.952988 8.13995 1.03151C8.78995 1.11817 10.0959 1.33318 11.2494 1.91996C12.4099 2.51029 13.4966 3.52541 13.4966 5.21656C13.4966 6.09024 13.1583 7.02767 12.8313 7.63885C12.6739 7.93295 12.4868 8.21362 12.2998 8.36504C12.2569 8.39976 12.1961 8.44279 12.1197 8.47352C11.6879 9.89675 10.3656 10.9327 8.80135 10.9327C7.35676 10.9327 6.11851 10.0492 5.59744 8.79311L5.58682 8.79458L5.43305 8.60787C5.43318 8.60805 5.43305 8.60787 5.76759 8.33232L5.43305 8.60787L5.43249 8.60718L5.43166 8.60618L5.42937 8.60337L5.42213 8.5944C5.41624 8.58699 5.40809 8.57671 5.39795 8.56362C5.37766 8.53749 5.34945 8.50026 5.31512 8.45281C5.24661 8.35807 5.15338 8.22207 5.05097 8.05244C4.84732 7.71513 4.60119 7.23492 4.44426 6.67468C4.28724 6.11417 4.21508 5.45723 4.3799 4.77957C4.54039 4.11973 4.91848 3.47024 5.60377 2.89071C5.60728 2.87563 5.61109 2.85877 5.61547 2.83942ZM6.34344 8.31659C6.69592 9.33476 7.66326 10.0659 8.80135 10.0659C10.0699 10.0659 11.1263 9.15755 11.3556 7.95579L11.4041 7.972C11.4024 7.94643 11.4017 7.92194 11.4017 7.89893C11.4017 7.18118 11.3022 6.6804 11.2092 6.36878C11.1886 6.29957 11.1682 6.23955 11.1492 6.18836L11.1311 6.18901L11.1139 6.18958C10.8833 6.19625 10.5561 6.18446 10.1467 6.11534C9.40264 5.9897 8.39478 5.67592 7.20836 4.9492C7.1824 5.00736 7.15636 5.07268 7.13057 5.14553C7.04536 5.38624 6.97555 5.67176 6.91513 5.97314C6.86182 6.2389 6.81792 6.50608 6.77666 6.75711L6.76041 6.85575C6.71603 7.12471 6.6713 7.38822 6.61912 7.57956C6.5285 7.91176 6.43554 8.14748 6.34344 8.31659ZM5.73699 7.50948C5.5733 7.22522 5.395 6.85514 5.27894 6.44086C5.14957 5.97908 5.10194 5.47864 5.22216 4.98439C5.33913 4.50337 5.62231 3.99738 6.20458 3.51826C6.30929 3.44727 6.35709 3.3518 6.36996 3.3261L6.37018 3.32562C6.3977 3.27067 6.41452 3.21515 6.42448 3.1797C6.4384 3.13013 6.45361 3.06307 6.46756 3.00176C6.47302 2.97776 6.47827 2.95464 6.48317 2.93379C6.52421 2.75929 6.57773 2.56896 6.67308 2.39538C6.76561 2.22701 6.89255 2.08338 7.08142 1.98917C7.27155 1.89432 7.56518 1.82934 8.0254 1.8907C8.6553 1.97468 9.83963 2.1753 10.8564 2.69253C11.8662 3.20622 12.6298 3.98351 12.6298 5.21656C12.6298 5.78453 12.4389 6.42989 12.2094 6.93957C12.1661 6.60754 12.1039 6.33602 12.0398 6.12101C11.9811 5.92404 11.9209 5.77534 11.8727 5.67167C11.8487 5.61988 11.8276 5.5794 11.8113 5.54984C11.8031 5.53506 11.7961 5.52306 11.7906 5.5137L11.7832 5.50169L11.7804 5.49723L11.7792 5.49532L11.7784 5.49411C11.7783 5.49389 11.7782 5.49372 11.4139 5.72849L11.7782 5.49372L11.618 5.24521L11.331 5.30307L11.325 5.30411C11.3174 5.30532 11.3034 5.3074 11.2831 5.30979C11.2427 5.3146 11.1773 5.32058 11.0887 5.32313C10.9116 5.32829 10.6413 5.3198 10.291 5.26064C9.59212 5.14263 8.56511 4.82126 7.31745 3.99032L7.0142 3.78835L6.76314 4.05242C6.55628 4.26999 6.41582 4.56712 6.31345 4.85633C6.20844 5.15307 6.12913 5.48418 6.06524 5.80273C6.00877 6.08448 5.96227 6.3674 5.92123 6.61703L5.90519 6.71455C5.85864 6.99664 5.8209 7.212 5.78284 7.35151C5.7672 7.40898 5.75186 7.4615 5.73699 7.50948ZM11.7529 7.69246L11.7545 7.69125L11.7529 7.69246ZM11.7545 7.69125L11.7542 7.6915L11.7545 7.69125ZM11.7542 7.6915L11.7529 7.69246L11.7542 7.6915Z" fill="#3F3F46" stroke="#3F3F46" stroke-width="0.2"/>
<path id="Vector_2" fill-rule="evenodd" clip-rule="evenodd" d="M6.16351 11.3022C6.0718 11.1193 5.9586 10.8935 5.76734 10.9371C3.42519 11.4705 1 13.0096 1 14.6457V16.9991H16.6022V14.6457C16.6022 13.357 15.0975 12.1284 13.3139 11.4041C13.3133 11.4028 13.3126 11.4014 13.312 11.4001C13.31 11.396 13.308 11.3919 13.306 11.3879L13.2915 11.3951C12.8176 11.204 12.3244 11.0486 11.8349 10.9371C11.617 10.8875 11.3917 11.1874 11.2928 11.3753H9.53141C9.14708 11.3754 8.95097 11.3753 8.75871 11.3753H8.74775C8.55133 11.3753 8.35492 11.3752 7.96201 11.3753H6.20073C6.18864 11.3523 6.17629 11.3277 6.16351 11.3022ZM12.0095 11.8747C12.1988 11.9269 12.3874 11.9858 12.5735 12.0509C12.5786 12.1991 12.5674 12.3741 12.5431 12.5524C12.5185 12.7327 12.482 12.9055 12.4414 13.045C12.4358 13.0638 12.4304 13.0817 12.425 13.0986H11.8349C11.6707 13.0986 11.5207 13.1913 11.4472 13.3382L11.0138 14.2049C10.9837 14.2651 10.9681 14.3315 10.9681 14.3988V15.2655C10.9681 15.5049 11.1621 15.6989 11.4015 15.6989H12.2683V14.8321H11.8349V14.5011L12.1027 13.9654H13.3006L13.5684 14.5011V14.8321H13.135V15.6989H14.0018C14.2412 15.6989 14.4352 15.5049 14.4352 15.2655V14.3988C14.4352 14.3315 14.4196 14.2651 14.3895 14.2049L13.9561 13.3382C13.8827 13.1913 13.7326 13.0986 13.5684 13.0986H13.323C13.355 12.9621 13.3819 12.8162 13.4019 12.6696C13.4139 12.5816 13.4237 12.4916 13.4305 12.4015C13.8531 12.6013 14.246 12.8301 14.5859 13.0781C15.4192 13.686 15.7354 14.2544 15.7354 14.6457V16.1323H1.86679V14.6457C1.86679 14.2544 2.18305 13.686 3.01628 13.0781C3.43503 12.7726 3.9343 12.4961 4.47023 12.2673C4.47582 12.4015 4.48874 12.5378 4.50672 12.6696C4.53633 12.8866 4.58105 13.102 4.63518 13.2877L4.63878 13.2998C4.27516 13.5304 4.03376 13.9364 4.03376 14.3988C4.03376 15.1168 4.61585 15.6989 5.33394 15.6989C6.05204 15.6989 6.63413 15.1168 6.63413 14.3988C6.63413 13.7323 6.13273 13.183 5.48654 13.1075C5.48022 13.088 5.47376 13.0671 5.4673 13.045C5.42665 12.9055 5.39011 12.7327 5.36554 12.5524C5.34092 12.3717 5.32974 12.1944 5.33537 12.0449C5.33672 12.0087 5.33897 11.9765 5.34183 11.948C5.39384 11.9319 5.44593 11.9164 5.49811 11.9014L5.6775 12.2421H7.96222C8.36389 12.242 8.55732 12.2421 8.75325 12.2421C8.94468 12.2421 9.1385 12.2421 9.53141 12.2421H11.8161L12.0095 11.8747ZM5.33394 14.8385C5.56728 14.8385 5.76734 14.6477 5.76734 14.3988C5.76734 14.1499 5.56728 13.959 5.33394 13.959C5.10061 13.959 4.90055 14.1499 4.90055 14.3988C4.90055 14.6477 5.10061 14.8385 5.33394 14.8385Z" fill="#3F3F46" stroke="#3F3F46" stroke-width="0.2"/>
</g>
</svg>
